<svg width="398" height="33" viewBox="0 0 398 33" fill="none" xmlns="http://www.w3.org/2000/svg">
<g style="mix-blend-mode:color-dodge">
<path d="M0 10.3698V8.22252H13.0205V10.3698H7.78521V24.8H5.25783V10.3698H0Z" fill="white"/>
<path d="M21.2502 24.8H18.5536L24.6012 8.22252H27.5348L33.5712 24.8H30.8858L26.1244 11.2376H25.989L21.2502 24.8ZM21.7015 18.3137H30.4232V20.4053H21.7015V18.3137Z" fill="white"/>
<path d="M39.093 10.3698V8.22252H52.1135V10.3698H46.8782V24.8H44.3508V10.3698H39.093Z" fill="white"/>
<path d="M62.6901 14.9091H67.2145C68.4632 14.9091 69.5238 15.1094 70.3963 15.5099C71.2689 15.9031 71.9383 16.4668 72.4047 17.2011C72.871 17.928 73.1042 18.7846 73.1042 19.7711C73.1042 20.765 72.871 21.6403 72.4047 22.3968C71.9383 23.146 71.2689 23.7356 70.3963 24.1658C69.5238 24.5886 68.4632 24.8 67.2145 24.8H60.9187V8.22252H63.4573V22.6861H67.2145C67.9442 22.6861 68.5572 22.5489 69.0536 22.2745C69.5576 22 69.9375 21.6366 70.1932 21.1841C70.4565 20.7317 70.5881 20.2533 70.5881 19.7489C70.5881 18.9997 70.2985 18.3582 69.7193 17.8241C69.1401 17.2901 68.3052 17.0231 67.2145 17.0231H62.6901V14.9091Z" fill="white"/>
<path d="M93.8693 24.8H91.3306V10.3698H88.1601C87.3252 10.3698 86.6482 10.4959 86.1292 10.7481C85.6102 10.9929 85.2303 11.3452 84.9896 11.805C84.7489 12.2575 84.6248 12.7989 84.6173 13.4294C84.6248 14.0525 84.7452 14.5828 84.9783 15.0204C85.219 15.458 85.5951 15.7955 86.1066 16.0329C86.6256 16.2628 87.2989 16.3815 88.1263 16.3889H92.4363V18.525H87.8893C86.588 18.525 85.5049 18.3137 84.6398 17.8909C83.7823 17.4681 83.1392 16.871 82.7105 16.0996C82.2892 15.3282 82.0749 14.4382 82.0673 13.4294C82.0749 12.4058 82.2892 11.5046 82.7105 10.7258C83.1392 9.94702 83.7823 9.3351 84.6398 8.89007C85.5049 8.44503 86.588 8.22252 87.8893 8.22252H93.8693V24.8ZM85.5876 17.3123H88.3971L84.3014 24.8H81.4355L85.5876 17.3123Z" fill="white"/>
<path d="M103.509 24.8V8.22252H106.048V15.4321H114.42V8.22252H116.959V24.8H114.42V17.5793H106.048V24.8H103.509Z" fill="white"/>
<path d="M128.032 24.8H125.335L131.383 8.22252H134.316L140.353 24.8H137.667L132.906 11.2376H132.77L128.032 24.8ZM128.483 18.3137H137.205V20.4053H128.483V18.3137Z" fill="white"/>
<path d="M197.027 8.22252H200.118L205.466 21.1062H205.658L211.017 8.22252H214.154V24.8H211.672V12.8064H211.514L206.538 24.7778H204.53L199.61 12.7952H199.452V24.8H197.027V8.22252Z" fill="white"/>
<path d="M225.227 24.8H222.531L228.578 8.22252H231.512L237.548 24.8H234.863L230.101 11.2376H229.966L225.227 24.8ZM225.678 18.3137H234.4V20.4053H225.678V18.3137Z" fill="white"/>
<path d="M255.887 24.8L249.828 17.368H248.452V24.8H245.913V8.22252H248.452V15.2207H249.817L255.639 8.22252H258.719L252.006 16.2776L258.99 24.8H255.887Z" fill="white"/>
<path d="M273.493 25.0225C272.049 25.0225 270.755 24.6813 269.612 23.999C268.468 23.3166 267.57 22.3412 266.915 21.0729C266.261 19.7971 265.934 18.2803 265.934 16.5224C265.934 14.7497 266.261 13.2291 266.915 11.9608C267.577 10.685 268.476 9.70596 269.612 9.02358C270.755 8.34119 272.049 8 273.493 8C274.381 8 275.212 8.12609 275.987 8.37828C276.769 8.63046 277.468 8.99762 278.085 9.47974C278.702 9.96186 279.21 10.5515 279.608 11.2487C280.015 11.946 280.285 12.7359 280.421 13.6185H277.871C277.773 13.0771 277.589 12.6024 277.318 12.1944C277.055 11.7791 276.728 11.4305 276.336 11.1486C275.953 10.8593 275.52 10.6442 275.039 10.5033C274.565 10.355 274.061 10.2808 273.527 10.2808C272.564 10.2808 271.695 10.5219 270.921 11.004C270.153 11.4787 269.548 12.1833 269.104 13.1179C268.668 14.045 268.45 15.1799 268.45 16.5224C268.45 17.8723 268.672 19.0109 269.115 19.938C269.559 20.8578 270.165 21.555 270.932 22.0297C271.699 22.5044 272.56 22.7417 273.516 22.7417C274.05 22.7417 274.554 22.6713 275.028 22.5303C275.501 22.3894 275.934 22.178 276.325 21.8962C276.716 21.6143 277.043 21.2731 277.307 20.8726C277.578 20.4646 277.766 19.9937 277.871 19.4596H280.421C280.293 20.2829 280.033 21.0358 279.642 21.7182C279.251 22.3931 278.751 22.9791 278.142 23.476C277.532 23.9656 276.837 24.3476 276.054 24.622C275.272 24.889 274.418 25.0225 273.493 25.0225Z" fill="white"/>
<path d="M289.429 8.22252H291.968V20.3942H292.114L300.678 8.22252H303.025V24.8H300.486V12.6506H300.317L291.799 24.8H289.429V8.22252Z" fill="white"/>
<path d="M312.676 8.22252H315.768L321.116 21.1062H321.308L326.667 8.22252H329.804V24.8H327.322V12.8064H327.164L322.188 24.7778H320.18L315.26 12.7952H315.102V24.8H312.676V8.22252Z" fill="white"/>
<path d="M346.485 25.0225C345.04 25.0225 343.747 24.6813 342.603 23.999C341.46 23.3166 340.557 22.3412 339.895 21.0729C339.233 19.7971 338.902 18.2803 338.902 16.5224C338.902 14.7497 339.233 13.2291 339.895 11.9608C340.557 10.685 341.46 9.70596 342.603 9.02358C343.747 8.34119 345.04 8 346.485 8C347.944 8 349.241 8.34119 350.377 9.02358C351.513 9.70596 352.408 10.685 353.062 11.9608C353.724 13.2291 354.055 14.7497 354.055 16.5224C354.055 18.2877 353.724 19.8045 353.062 21.0729C352.408 22.3412 351.513 23.3166 350.377 23.999C349.241 24.6813 347.944 25.0225 346.485 25.0225ZM346.485 22.7417C347.455 22.7417 348.32 22.5044 349.08 22.0297C349.839 21.555 350.437 20.8541 350.874 19.9269C351.317 18.9997 351.539 17.8649 351.539 16.5224C351.539 15.1725 351.317 14.0339 350.874 13.1068C350.437 12.1722 349.839 11.4676 349.08 10.9929C348.32 10.5181 347.455 10.2808 346.485 10.2808C345.522 10.2808 344.657 10.5181 343.889 10.9929C343.13 11.4676 342.528 12.1722 342.084 13.1068C341.64 14.0339 341.419 15.1725 341.419 16.5224C341.419 17.8649 341.64 18.9997 342.084 19.9269C342.528 20.8541 343.13 21.555 343.889 22.0297C344.657 22.5044 345.522 22.7417 346.485 22.7417Z" fill="white"/>
<path d="M363.165 24.8V8.22252H369.337C370.525 8.22252 371.511 8.41536 372.293 8.80106C373.075 9.18676 373.658 9.70967 374.042 10.3698C374.433 11.0225 374.629 11.7568 374.629 12.5727C374.629 13.2625 374.497 13.8448 374.234 14.3195C373.978 14.7942 373.636 15.1725 373.207 15.4543C372.778 15.7362 372.304 15.9438 371.785 16.0774V16.2331C372.349 16.2628 372.899 16.4408 373.433 16.7672C373.967 17.0935 374.407 17.5571 374.753 18.1579C375.106 18.7513 375.283 19.4782 375.283 20.3386C375.283 21.1841 375.08 21.9444 374.674 22.6194C374.275 23.2869 373.658 23.8172 372.823 24.2103C371.988 24.6035 370.917 24.8 369.608 24.8H363.165ZM365.704 22.6639H369.359C370.578 22.6639 371.451 22.4302 371.977 21.9629C372.504 21.4956 372.767 20.9134 372.767 20.2162C372.767 19.6895 372.632 19.2111 372.361 18.7809C372.097 18.3433 371.718 17.9947 371.221 17.7351C370.725 17.4755 370.138 17.3457 369.461 17.3457H365.704V22.6639ZM365.704 15.3987H369.111C369.675 15.3987 370.187 15.2911 370.646 15.076C371.105 14.8609 371.466 14.5568 371.729 14.1637C372 13.7632 372.135 13.2996 372.135 12.773C372.135 12.0906 371.891 11.5195 371.402 11.0596C370.92 10.5923 370.179 10.3587 369.179 10.3587H365.704V15.3987Z" fill="white"/>
<path d="M385.679 24.8H382.982L389.03 8.22252H391.964L398 24.8H395.315L390.553 11.2376H390.418L385.679 24.8ZM386.13 18.3137H394.852V20.4053H386.13V18.3137Z" fill="white"/>
<path d="M166.921 31L157.874 16.3417M166.921 31L176.78 16.3417M166.921 31L163.637 16.3877M166.921 31L171.018 16.3877M157.874 16.3417H176.78M157.874 16.3417L167.38 2M176.78 16.3417L167.38 2M163.637 16.3877H171.018M163.637 16.3877L167.38 2M171.018 16.3877L167.38 2" stroke="white" stroke-width="1.57668"/>
</g>
</svg>
