<svg width="132" height="106" viewBox="0 0 132 106" fill="none" xmlns="http://www.w3.org/2000/svg">
<g style="mix-blend-mode:color-dodge">
<path d="M45.144 50.2666C58.872 50.2666 70.026 39 70.026 25.1333C70.026 11.2666 58.872 0 45.144 0C31.416 0 20.262 11.2666 20.262 25.1333C20.262 39 31.416 50.2666 45.144 50.2666Z" fill="#343434"/>
<path d="M93.456 89.5334V101C93.456 103.733 91.278 106 88.506 106H4.95C2.244 106 0 103.733 0 101V89.5334C0 73.4667 12.936 60.4 28.842 60.4H64.614C67.848 60.4 70.95 60.9333 73.854 62C73.854 62 73.854 61.9333 73.92 62C85.272 65.8667 93.456 76.7334 93.456 89.5334Z" fill="#343434"/>
<path d="M132 83.8V93.2C132 95.4 130.218 97.2 128.04 97.2H103.356V89.5334C103.356 82.8 101.64 76.4 98.67 70.8667C97.416 68.6 96.03 66.4667 94.446 64.5334C93.324 63.2667 92.202 62 91.014 60.9334H109.362C110.088 60.9334 110.748 60.9333 111.408 61.0667C112.266 61.1333 113.124 61.2666 113.982 61.4666C118.998 62.5333 123.354 65.3334 126.588 69.0667C127.116 69.6667 127.644 70.3333 128.106 71.0667C128.172 71.0667 128.172 71.0667 128.106 71.1333C129.36 73 130.35 75 131.01 77.2C131.208 77.9333 131.406 78.6667 131.538 79.4C131.868 80.8 132 82.2667 132 83.8Z" fill="#343434"/>
<path d="M94.9081 49.3333C105.807 49.3333 114.642 40.4089 114.642 29.4C114.642 18.3911 105.807 9.46666 94.9081 9.46666C84.0093 9.46666 75.1741 18.3911 75.1741 29.4C75.1741 40.4089 84.0093 49.3333 94.9081 49.3333Z" fill="#343434"/>
</g>
</svg>
