<svg width="100" height="106" viewBox="0 0 100 106" fill="none" xmlns="http://www.w3.org/2000/svg">
<g style="mix-blend-mode:color-dodge">
<path d="M49.9731 0C26.2475 0 6.93723 19.3103 6.93723 43.0891C6.93723 51.5473 9.38415 59.4735 13.6399 66.123C15.1826 68.57 16.938 70.8044 18.9595 72.879L20.6086 74.5281C21.1405 74.9537 21.6194 75.4323 22.1513 75.9111C24.5452 77.9326 27.205 79.6881 30.0245 81.1777C30.716 81.55 31.4075 81.8692 32.099 82.1884C32.7906 82.5076 33.4821 82.8267 34.2269 83.0926C36.7271 84.1034 39.387 84.9013 42.1 85.38C44.6534 85.8588 47.2601 86.1249 49.9731 86.1249C52.7393 86.1249 55.399 85.8589 58.0057 85.327C60.7719 84.8482 63.3786 84.1034 65.8788 83.0926V83.0394C66.5703 82.7734 67.3151 82.4543 68.0066 82.1351C68.6982 81.816 69.3898 81.4436 70.0814 81.1244C70.2409 81.018 70.3473 80.9648 70.5069 80.9116C72.3687 79.8476 74.1242 78.7305 75.7732 77.5602C76.4648 76.975 77.1033 76.4963 77.7417 75.9643C78.3268 75.4324 78.9119 74.9536 79.4971 74.4216C80.029 73.8896 80.6142 73.3045 81.1461 72.7725C83.1144 70.6979 84.8699 68.4637 86.4658 66.0167C90.6151 59.3671 93.0621 51.4941 93.0621 43.0891C93.0621 19.3103 73.7519 0 49.9731 0ZM70.4005 39.844L61.9423 48.1426C61.5699 48.4618 61.4103 48.9938 61.5167 49.5258L63.5381 61.1758C63.7509 62.4525 62.421 63.41 61.2507 62.8248L50.771 57.2924C50.2923 57.0796 49.7603 57.0796 49.2815 57.2924L38.8018 62.8248C37.6315 63.41 36.3016 62.4525 36.5144 61.1758L38.5358 49.5258C38.5889 48.9938 38.4294 48.515 38.1103 48.1426L29.5988 39.844C28.6945 38.9397 29.1732 37.397 30.45 37.1842L42.2063 35.482C42.6851 35.4288 43.1107 35.1096 43.3766 34.6309L48.59 23.9916C49.1751 22.8213 50.8242 22.8213 51.4094 23.9916L56.6227 34.6309C56.8886 35.1096 57.3142 35.4288 57.793 35.482L69.5494 37.1842C70.8261 37.397 71.3049 38.9397 70.4005 39.844Z" fill="#343434"/>
<path d="M23.4997 16.5625H76.4996V66.2499H23.4997V16.5625Z" fill="#343434"/>
<path d="M16.1259 76.2226C14.0349 74.1861 12.109 71.9844 10.4582 69.5626L0.88355 86.1851C0.113181 87.5061 0.113235 89.1024 0.93863 90.4234C1.709 91.6893 3.02959 92.4598 4.68038 92.3497L18.217 91.6343L24.3799 103.743C25.0402 105.064 26.4158 105.945 27.9566 106C27.9566 106 28.0115 106 28.0666 106C29.4973 106 30.873 105.229 31.6434 103.908L40.0624 89.2674C37.3111 88.6619 34.6147 87.8364 32.0285 86.7355C26.0306 84.2587 20.6381 80.681 16.1259 76.2226Z" fill="#343434"/>
<path d="M99.1573 86.2448L89.4761 69.5626C87.7709 71.9771 85.9006 74.2272 83.7553 76.2027C79.2447 80.7025 73.8539 84.2693 67.9131 86.7387C65.3278 87.8362 62.6874 88.6595 59.937 89.2631L68.4082 103.915C69.1233 105.232 70.4984 106 71.9836 106C71.9836 106 72.0387 106 72.0937 106C73.5789 105.945 74.954 105.067 75.6141 103.75L81.7749 91.6776L95.3617 92.3909C96.9569 92.5006 98.2773 91.7325 99.1024 90.4704C99.8725 89.1533 99.8723 87.5618 99.1573 86.2448Z" fill="#343434"/>
</g>
</svg>
