<svg width="77" height="100" viewBox="0 0 77 100" fill="none" xmlns="http://www.w3.org/2000/svg">
<g style="mix-blend-mode:color-dodge">
<path d="M75.8676 47.7557L42.0044 97.0003C40.7019 98.9501 38.5981 100 36.3438 100C35.6425 100 34.9412 99.9 34.2399 99.7C31.3845 98.8001 29.4309 96.2504 29.4309 93.3008V65.1038C29.4309 63.9539 28.3288 62.954 26.9763 62.954L6.78864 62.7041C4.23387 62.7041 1.87952 61.2542 0.727365 59.0545C-0.374692 56.9047 -0.22443 54.3051 1.17819 52.2553L34.9913 3.01066C36.6945 0.510937 39.8504 -0.588986 42.7558 0.310916C45.6111 1.21082 47.5647 3.76053 47.5647 6.71021V34.9072C47.5647 36.0571 48.6668 37.0569 50.0193 37.0569L70.207 37.3068C72.7618 37.3068 75.1161 38.7067 76.2683 40.9565C77.3704 43.1063 77.2201 45.7059 75.8676 47.7557Z" fill="#343434"/>
</g>
</svg>
