<svg width="100" height="106" viewBox="0 0 100 106" fill="none" xmlns="http://www.w3.org/2000/svg">
<g style="mix-blend-mode:color-dodge">
<path d="M49.6606 0C25.935 0 6.62476 19.3103 6.62476 43.0891C6.62476 51.5473 9.07168 59.4735 13.3274 66.123C14.8701 68.57 16.6256 70.8044 18.647 72.879L20.2961 74.5281C20.8281 74.9537 21.3069 75.4323 21.8389 75.9111C24.2327 77.9326 26.8926 79.6881 29.712 81.1777C30.4035 81.55 31.095 81.8692 31.7866 82.1884C32.4781 82.5076 33.1696 82.8267 33.9144 83.0926C36.4146 84.1034 39.0745 84.9013 41.7875 85.38C44.3409 85.8588 46.9476 86.1249 49.6606 86.1249C52.4269 86.1249 55.0866 85.8589 57.6932 85.327C60.4594 84.8482 63.0661 84.1034 65.5663 83.0926V83.0394C66.2579 82.7734 67.0026 82.4543 67.6941 82.1351C68.3857 81.816 69.0773 81.4436 69.7689 81.1244C69.9285 81.018 70.0348 80.9648 70.1944 80.9116C72.0563 79.8476 73.8117 78.7305 75.4608 77.5602C76.1523 76.975 76.7908 76.4963 77.4292 75.9643C78.0143 75.4324 78.5994 74.9536 79.1846 74.4216C79.7166 73.8896 80.3017 73.3045 80.8337 72.7725C82.8019 70.6979 84.5574 68.4637 86.1533 66.0167C90.3026 59.3671 92.7496 51.4941 92.7496 43.0891C92.7496 19.3103 73.4394 0 49.6606 0ZM70.0881 39.844L61.6298 48.1426C61.2575 48.4618 61.0978 48.9938 61.2042 49.5258L63.2257 61.1758C63.4385 62.4525 62.1086 63.41 60.9383 62.8248L50.4586 57.2924C49.9798 57.0796 49.4478 57.0796 48.9691 57.2924L38.4894 62.8248C37.319 63.41 35.9892 62.4525 36.202 61.1758L38.2233 49.5258C38.2765 48.9938 38.117 48.515 37.7978 48.1426L29.2863 39.844C28.382 38.9397 28.8608 37.397 30.1375 37.1842L41.8938 35.482C42.3726 35.4288 42.7982 35.1096 43.0642 34.6309L48.2775 23.9916C48.8626 22.8213 50.5117 22.8213 51.0969 23.9916L56.3102 34.6309C56.5762 35.1096 57.0018 35.4288 57.4805 35.482L69.2369 37.1842C70.5136 37.397 70.9924 38.9397 70.0881 39.844Z" fill="#343434"/>
<path d="M23.1872 16.5625H76.1871V66.2499H23.1872V16.5625Z" fill="#343434"/>
<path d="M15.8134 76.2226C13.7224 74.1861 11.7965 71.9844 10.1457 69.5626L0.57105 86.1851C-0.199319 87.5061 -0.199265 89.1024 0.62613 90.4234C1.3965 91.6893 2.71709 92.4598 4.36788 92.3497L17.9045 91.6343L24.0674 103.743C24.7277 105.064 26.1033 105.945 27.6441 106C27.6441 106 27.699 106 27.7541 106C29.1848 106 30.5605 105.229 31.3309 103.908L39.7499 89.2674C36.9986 88.6619 34.3022 87.8364 31.716 86.7355C25.7181 84.2587 20.3256 80.681 15.8134 76.2226Z" fill="#343434"/>
<path d="M98.8448 86.2448L89.1636 69.5626C87.4584 71.9771 85.5881 74.2272 83.4428 76.2027C78.9322 80.7025 73.5414 84.2693 67.6006 86.7387C65.0153 87.8362 62.3749 88.6595 59.6245 89.2631L68.0957 103.915C68.8108 105.232 70.1859 106 71.6711 106C71.6711 106 71.7262 106 71.7812 106C73.2664 105.945 74.6415 105.067 75.3016 103.75L81.4624 91.6776L95.0492 92.3909C96.6444 92.5006 97.9648 91.7325 98.7899 90.4704C99.56 89.1533 99.5598 87.5618 98.8448 86.2448Z" fill="#343434"/>
</g>
</svg>
