<svg width="23" height="22" viewBox="0 0 23 22" fill="none" xmlns="http://www.w3.org/2000/svg">
<path d="M21 20.5H3.68889C3.09772 20.5 2.80214 20.5 2.57634 20.385C2.37773 20.2838 2.21625 20.1223 2.11505 19.9237C2 19.6979 2 19.4023 2 18.8111V1.5M21 5.72222L15.2638 11.4584C15.0548 11.6675 14.9503 11.772 14.8298 11.8111C14.7238 11.8456 14.6096 11.8456 14.5036 11.8111C14.3831 11.772 14.2786 11.6675 14.0696 11.4584L12.0971 9.486C11.8881 9.27699 11.7836 9.17249 11.6631 9.13333C11.5571 9.09889 11.4429 9.09889 11.3369 9.13333C11.2164 9.17249 11.1119 9.27699 10.9029 9.486L6.22222 14.1667M21 5.72222H16.7778M21 5.72222V9.94444" stroke="white" stroke-width="2.4" stroke-linecap="round" stroke-linejoin="round"/>
</svg>
