<svg width="16" height="14" viewBox="0 0 16 14" fill="none" xmlns="http://www.w3.org/2000/svg">
<path d="M12.8484 7.00151V9.60745C12.8484 10.0756 12.6084 10.5047 12.2164 10.7622C11.2484 11.3863 9.66438 12.1275 7.58437 12.1275C6.64038 12.1275 4.78437 11.9481 2.95237 10.7543C2.56037 10.5047 2.32837 10.0756 2.32837 9.60745V7.00932L3.52837 7.52424L6.76836 8.93643C6.95236 9.02225 7.12837 9.05349 7.22437 9.06129C7.46437 9.1081 7.70437 9.10811 7.92837 9.0691C8.04037 9.05349 8.21637 9.02225 8.40037 8.93643L12.8484 7.00151Z" fill="#7B5C1E"/>
<path d="M16.0004 11.0118C16.0004 11.5658 15.6644 12.0495 15.1764 12.2679V13.4148C15.1764 13.7425 14.9044 14 14.5764 14C14.2404 14 13.9764 13.7425 13.9764 13.4148V12.2679C13.4884 12.0495 13.1524 11.5658 13.1524 11.0118C13.1524 10.4579 13.4884 9.97413 13.9764 9.75567V5.40206L8.40037 7.82852C8.21637 7.91434 8.04037 7.94554 7.92837 7.96114C7.70437 8.00015 7.46437 8.00014 7.22437 7.95333C7.12837 7.94553 6.95236 7.91434 6.76836 7.82852L3.52837 6.41633L2.32837 5.90141L0.936377 5.29282C0.360377 5.04315 0.000366211 4.55163 0.000366211 3.99768C0.000366211 3.44373 0.360377 2.94436 0.936377 2.69469L6.77637 0.158987C7.28837 -0.0516716 7.88037 -0.0516792 8.38438 0.151177L14.2404 2.69469C14.8164 2.94436 15.1764 3.44373 15.1764 3.99768V9.75567C15.6644 9.97413 16.0004 10.4579 16.0004 11.0118Z" fill="#7B5C1E"/>
</svg>
