<svg width="60" height="60" viewBox="0 0 60 60" fill="none" xmlns="http://www.w3.org/2000/svg">
<rect width="60" height="60" rx="8" fill="#D9D9D9"/>
<rect width="60" height="60" rx="8" fill="#0099E6"/>
<path d="M16.9249 29.9014C24.441 26.6556 29.453 24.5158 31.9607 23.4819C39.1209 20.5301 40.6087 20.0173 41.5784 20.0002C41.7917 19.9966 42.2686 20.049 42.5775 20.2975C42.8383 20.5072 42.9101 20.7906 42.9444 20.9895C42.9788 21.1884 43.0215 21.6415 42.9876 21.9956C42.5995 26.0365 40.9206 35.8427 40.0665 40.3686C39.7051 42.2837 38.9934 42.9258 38.3045 42.9886C36.8072 43.1252 35.6703 42.0078 34.2201 41.0656C31.9509 39.5912 30.669 38.6734 28.4663 37.2347C25.9207 35.572 27.5709 34.6582 29.0216 33.1647C29.4013 32.7738 35.9982 26.8263 36.1259 26.2868C36.1418 26.2193 36.1567 25.9678 36.0059 25.835C35.8552 25.7022 35.6327 25.7476 35.4721 25.7837C35.2445 25.8349 31.6194 28.2098 24.5968 32.9085C23.5678 33.6088 22.6358 33.9501 21.8008 33.9322C20.8802 33.9125 19.1094 33.4163 17.793 32.9921C16.1783 32.4719 14.895 32.1969 15.0068 31.3133C15.065 30.8532 15.7043 30.3825 16.9249 29.9014Z" fill="white"/>
</svg>
