<svg width="60" height="60" viewBox="0 0 60 60" fill="none" xmlns="http://www.w3.org/2000/svg">
<rect width="60" height="60" rx="8" fill="#D9D9D9"/>
<rect width="60" height="60" rx="8" fill="#25D366"/>
<path fill-rule="evenodd" clip-rule="evenodd" d="M40.4995 19.313C37.687 16.5005 33.937 15.0005 29.9995 15.0005C21.7495 15.0005 14.9995 21.7505 14.9995 30.0005C14.9995 32.6255 15.7495 35.2505 17.062 37.5005L14.9995 45.0005L22.8745 42.938C25.1245 44.063 27.562 44.813 29.9995 44.813C38.2495 44.813 44.9995 38.063 44.9995 29.813C44.9995 25.8755 43.312 22.1255 40.4995 19.313ZM29.9995 42.3755C27.7495 42.3755 25.4995 41.813 23.6245 40.688L23.2495 40.5005L18.562 41.813L19.8745 37.313L19.4995 36.7505C18.187 34.688 17.6245 32.438 17.6245 30.188C17.6245 23.438 23.2495 17.813 29.9995 17.813C33.3745 17.813 36.3745 19.1255 38.812 21.3755C41.2495 23.813 42.3745 26.813 42.3745 30.188C42.3745 36.7505 36.937 42.3755 29.9995 42.3755ZM36.7495 33.0005C36.3745 32.813 34.4995 31.8755 34.1245 31.8755C33.7495 31.688 33.562 31.688 33.3745 32.063C33.187 32.438 32.437 33.188 32.2495 33.563C32.062 33.7505 31.8745 33.7505 31.4995 33.7505C31.1245 33.563 29.9995 33.188 28.4995 31.8755C27.3745 30.938 26.6245 29.6255 26.437 29.2505C26.2495 28.8755 26.437 28.688 26.6245 28.5005C26.812 28.313 26.9995 28.1255 27.187 27.938C27.3745 27.7505 27.3745 27.563 27.562 27.3755C27.7495 27.188 27.562 27.0005 27.562 26.813C27.562 26.6255 26.812 24.7505 26.437 24.0005C26.2495 23.438 25.8745 23.438 25.687 23.438C25.4995 23.438 25.312 23.438 24.937 23.438C24.7495 23.438 24.3745 23.438 23.9995 23.813C23.6245 24.188 22.687 25.1255 22.687 27.0005C22.687 28.8755 23.9995 30.563 24.187 30.938C24.3745 31.1255 26.812 35.063 30.562 36.563C33.7495 37.8755 34.312 37.5005 35.062 37.5005C35.812 37.5005 37.312 36.563 37.4995 35.813C37.8745 34.8755 37.8745 34.1255 37.687 34.1255C37.4995 33.188 37.1245 33.188 36.7495 33.0005Z" fill="white"/>
</svg>
